<svg xmlns="http://www.w3.org/2000/svg" viewBox="0 0 16 16" shape-rendering="crispEdges">
  <rect width="16" height="16" fill="#fafaf7"/>
  <rect x="7" y="2" width="2" height="1" fill="#3a7e2c"/>
  <rect x="5" y="3" width="2" height="1" fill="#5cc94a"/>
  <rect x="7" y="3" width="2" height="1" fill="#3a7e2c"/>
  <rect x="9" y="3" width="2" height="1" fill="#5cc94a"/>
  <rect x="4" y="4" width="3" height="1" fill="#5cc94a"/>
  <rect x="7" y="4" width="2" height="1" fill="#3a7e2c"/>
  <rect x="9" y="4" width="3" height="1" fill="#5cc94a"/>
  <rect x="3" y="5" width="2" height="1" fill="#5cc94a"/>
  <rect x="5" y="5" width="6" height="1" fill="#3a7e2c"/>
  <rect x="11" y="5" width="2" height="1" fill="#5cc94a"/>
  <rect x="3" y="6" width="11" height="1" fill="#e63946"/>
  <rect x="2" y="7" width="13" height="1" fill="#e63946"/>
  <rect x="1" y="8" width="14" height="2" fill="#e63946"/>
  <rect x="2" y="10" width="13" height="2" fill="#e63946"/>
  <rect x="2" y="12" width="12" height="1" fill="#e63946"/>
  <rect x="3" y="13" width="10" height="1" fill="#e63946"/>
  <rect x="4" y="14" width="8" height="1" fill="#e63946"/>
  <rect x="3" y="8" width="2" height="1" fill="#ff7a6b"/>
  <rect x="2" y="9" width="2" height="1" fill="#ff7a6b"/>
  <rect x="11" y="10" width="3" height="2" fill="#b3232c"/>
  <rect x="10" y="12" width="4" height="1" fill="#b3232c"/>
</svg>
